# xmcd
#
# Track frame offsets:
#	150
#	16823
#	37950
#	54291
#	69811
#	87628
#	98638
#	116193
#	132335
#	148322
#	165873
#
# Disc length: 2456 seconds
#
# Revision: 1
# Processed by: cddbd v1.5PL3 Copyright (c) Steve Scherf et al.
# Submitted via: audiograbber 1.80.04
#
DISCID=8a09960b
DTITLE=Maura O'Connell - Don't I Know
DYEAR=1900
DGENRE=Country
TTITLE0=Trip Around The Sun
TTITLE1=There's No Good Day For Dying
TTITLE2=Hold On
TTITLE3=Love You In The Middle
TTITLE4=Going Down In Flames
TTITLE5=When Being Who You Are (Is Not Enough)
TTITLE6=Don't I
TTITLE7=Spinning Wheel
TTITLE8=Up And Flying
TTITLE9=Phoenix Falling
TTITLE10=Time To Learn
EXTD=
EXTT0=
EXTT1=
EXTT2=
EXTT3=
EXTT4=
EXTT5=
EXTT6=
EXTT7=
EXTT8=
EXTT9=
EXTT10=
PLAYORDER=
